PathFileType	4	(X/Y/Z)	C:/Users/opensim2020/Desktop/walking_exp_matlab/subject01_walking09_straight_03.trc																																																																																																																															
DataRate	CameraRate	NumFrames	NumMarkers	Units	OrigDataRate	OrigDataStartFrame	OrigNumFrames																																																																																																																											
100	100	5	43	mm	100	2931	348																																																																																																																											
Frame#	Time	LFHD			RFHD			LBHD			RBHD			C7			T10			CLAV			STRN			RBAK			LSHO			LUPA			LELB			LFRM			LWRA			LWRB			LFIN			RSHO			RUPA			RELB			RFRM			RWRA			RWRB			RFIN			LASI			RASI			LPSI			RPSI			LTHI			LKNE			LTIB			LANK			LHEE			LTOE			RTHI			RKNE			RTIB			RANK			RHEE			RTOE			*39			*40			*41			*42		
		X1	Y1	Z1	X2	Y2	Z2	X3	Y3	Z3	X4	Y4	Z4	X5	Y5	Z5	X6	Y6	Z6	X7	Y7	Z7	X8	Y8	Z8	X9	Y9	Z9	X10	Y10	Z10	X11	Y11	Z11	X12	Y12	Z12	X13	Y13	Z13	X14	Y14	Z14	X15	Y15	Z15	X16	Y16	Z16	X17	Y17	Z17	X18	Y18	Z18	X19	Y19	Z19	X20	Y20	Z20	X21	Y21	Z21	X22	Y22	Z22	X23	Y23	Z23	X24	Y24	Z24	X25	Y25	Z25	X26	Y26	Z26	X27	Y27	Z27	X28	Y28	Z28	X29	Y29	Z29	X30	Y30	Z30	X31	Y31	Z31	X32	Y32	Z32	X33	Y33	Z33	X34	Y34	Z34	X35	Y35	Z35	X36	Y36	Z36	X37	Y37	Z37	X38	Y38	Z38	X39	Y39	Z39	X40	Y40	Z40	X41	Y41	Z41	X42	Y42	Z42	X43	Y43	Z43
																																																																																																																																		
88	0.87	-611.13574	1672.5647	-1134.17493	-602.10669	1681.35156	-1021.66498	-716.81482	1605.60974	-1129.04517	-710.02264	1612.96021	-1009.2135	-728.84082	1427.75879	-1088.05737	-768.75134	1136.54736	-1079.47717	-583.62872	1361.32471	-1081.49329	-543.41528	1204.35132	-1087.48035	-786.73389	1234.07971	-1011.72827	-636.47382	1392.88379	-1243.21289	-622.29218	1212.46118	-1331.1947	-591.70172	1063.58728	-1335.14819	-515.97681	975.24976	-1347.28943	-409.3334	893.15051	-1309.17163	-452.97504	870.54425	-1343.26746	-383.47256	822.27997	-1342.6073	-652.92267	1386.63574	-932.27625	-720.57428	1190.25012	-833.48474	-723.8905	1066.38147	-825.34918	-702.98267	949.49841	-789.14642	-626.90228	828.41388	-802.08679	-671.77802	832.92847	-763.82123	-637.84326	752.65479	-763.03455	-601.94727	922.14856	-1180.68164	-598.92621	936.02747	-963.49683	-787.1156	937.58801	-1124.66736	-783.71271	943.74689	-979.84381	-650.57764	588.6792	-1218.6842	-672.47955	454.98834	-1199.21692	-745.85101	278.16705	-1203.25659	-799.86646	67.93735	-1142.34924	-847.5791	40.99966	-1089.23743	-654.39404	30.26799	-1149.66577	-586.16852	610.84442	-884.73486	-528.41449	463.23267	-907.82306	-531.38293	291.05042	-895.6026	-481.49533	85.51158	-932.38605	-507.9808	33.71304	-988.01837	-338.19	82.8586	-917.2702	-619.66327	1711.71619	-1044.43274	1972.80029	1024.63831	-3102.90894	2013.13269	1022.18927	-3138.46313	NaN	NaN	NaN
89	0.88	-604.96967	1671.95837	-1133.34949	-596.13745	1680.95056	-1020.79785	-710.78644	1605.45886	-1128.13574	-703.48346	1612.5863	-1008.03888	-723.49719	1427.34583	-1087.19543	-762.76141	1135.94592	-1078.51038	-577.87616	1360.78247	-1080.67505	-537.5105	1203.90527	-1086.90698	-780.76331	1233.35815	-1010.94824	-630.82007	1392.45068	-1242.42456	-616.61584	1211.86121	-1330.19043	-585.33282	1063.15833	-1334.03064	-509.49142	974.9964	-1346.07312	-402.95511	893.10822	-1308.02612	-446.38751	870.3457	-1342.01282	-376.82874	822.1712	-1341.29749	-647.40063	1385.93738	-931.40961	-714.6897	1189.50867	-832.8584	-718.2962	1065.64868	-824.97498	-698.07294	948.74738	-788.81921	-622.59265	827.29944	-801.60065	-667.51361	831.94482	-763.50714	-634.17578	751.59082	-762.63202	-596.18024	921.64038	-1180.58765	-592.28748	935.37714	-963.40875	-781.13892	936.92834	-1123.55994	-777.23224	943.19684	-978.71857	-647.03424	588.43201	-1218.36108	-669.73822	454.73975	-1199.15833	-744.09338	278.36292	-1203.19958	-799.61377	68.38387	-1142.47278	-847.43481	41.67512	-1089.24268	-654.34253	30.34462	-1149.80591	-580.84515	610.16901	-884.4245	-522.10931	463.11237	-907.63269	-521.96759	290.90231	-894.90558	-468.82944	86.29678	-931.34485	-494.95148	33.73146	-986.67072	-325.08472	85.56461	-917.41302	-613.42157	1711.25476	-1043.55432	1972.95776	1024.73486	-3102.2959	2013.12427	1022.13843	-3138.29614	NaN	NaN	NaN
90	0.89	-598.83325	1671.57019	-1132.45703	-589.47552	1680.2605	-1019.73596	-704.75903	1605.2887	-1127.16663	-697.49475	1612.44958	-1006.98254	-717.70862	1426.75476	-1086.3208	-756.75629	1135.30078	-1077.50415	-572.16388	1360.25867	-1079.43091	-531.64478	1203.49573	-1086.26074	-774.77979	1232.63354	-1010.11871	-625.14496	1391.91626	-1241.50122	-611.04626	1211.23718	-1329.17065	-579.1239	1062.74878	-1332.79858	-503.16296	974.65228	-1344.85852	-396.44138	892.79126	-1306.60962	-440.00079	870.05035	-1340.73914	-370.38901	821.9743	-1339.98181	-641.17218	1385.23315	-930.51184	-708.84406	1188.79492	-832.05939	-712.76923	1064.96802	-824.51477	-693.01794	948.00049	-788.39526	-618.10352	826.16095	-800.97021	-663.5058	831.26862	-763.07465	-629.96674	750.49103	-762.1131	-590.52551	921.13434	-1180.36682	-585.60706	934.79858	-963.27893	-775.13837	936.3385	-1122.33423	-770.60187	942.6084	-977.44159	-643.2984	588.14386	-1218.00928	-666.85822	454.47015	-1198.98218	-742.3606	278.57877	-1203.20825	-799.33234	68.87082	-1142.60876	-847.34131	42.33879	-1089.30261	-654.29999	30.19342	-1149.74756	-574.04321	609.21667	-883.95197	-515.97278	462.62149	-907.77191	-513.09467	290.81976	-894.27704	-456.98239	86.71463	-930.35297	-483.5892	33.97627	-985.32703	-313.14572	87.48287	-917.48737	-606.96509	1710.67542	-1042.56958	1972.86743	1024.10376	-3102.67041	2013.08191	1022.07947	-3138.64868	NaN	NaN	NaN
91	0.9	-592.4364	1670.94922	-1131.1344	-583.25238	1679.62366	-1018.64325	-698.71295	1605.09375	-1125.97693	-691.32764	1612.10596	-1005.91705	-711.63049	1426.11816	-1085.24097	-750.5968	1134.62915	-1076.48657	-566.31488	1359.86853	-1078.93542	-525.64014	1203.09705	-1085.52063	-768.76544	1231.83484	-1009.23938	-619.44092	1391.45459	-1240.66492	-605.59149	1210.56458	-1327.99182	-573.07318	1062.271	-1331.5293	-496.98785	974.29498	-1343.52234	-390.20456	892.52515	-1305.29114	-433.77438	869.6908	-1339.36218	-364.08533	821.67926	-1338.64954	-635.51764	1385.02991	-929.39136	-703.02789	1188.02844	-831.24274	-707.11121	1064.29553	-823.97638	-687.90491	947.24829	-787.9079	-613.34741	825.11194	-800.29608	-658.16406	830.17926	-762.61523	-626.57452	749.40955	-761.729	-584.85303	920.58807	-1179.94019	-578.77301	934.15887	-962.94928	-769.08508	935.8208	-1120.98035	-763.88831	941.83453	-976.13281	-639.3736	587.88751	-1217.50427	-663.82489	454.28265	-1198.83484	-740.51379	278.9502	-1203.10742	-799.08325	69.48651	-1142.66003	-847.1933	43.15612	-1089.41907	-654.255	30.15595	-1149.81628	-567.9082	608.53485	-883.48413	-509.88229	462.14178	-908.07965	-504.91977	290.6842	-893.68622	-446.77643	86.86345	-929.54907	-472.49683	33.61038	-984.13641	-302.40576	88.71249	-917.73047	-600.5351	1710.43616	-1041.09106	1973.18115	1024.03149	-3102.01709	2013.06445	1022.125	-3138.43652	NaN	NaN	NaN
92	0.91	-586.41968	1670.53296	-1130.30945	-576.99487	1679.0116	-1017.60968	-692.67139	1604.84277	-1124.85876	-685.27142	1611.92834	-1004.78851	-705.82959	1425.53918	-1084.21216	-744.45117	1134.00977	-1075.29663	-560.53802	1359.36975	-1077.66309	-519.59222	1202.67944	-1084.6947	-762.70508	1231.11316	-1008.32758	-613.79559	1391.13538	-1239.81665	-600.05164	1210.00281	-1326.88855	-567.05432	1061.81592	-1330.25439	-490.93356	973.88605	-1342.18347	-384.10065	892.13586	-1303.89417	-427.70425	869.29138	-1337.90332	-357.94983	821.3479	-1337.16577	-629.50385	1383.9646	-928.63873	-697.18616	1187.32788	-830.34503	-701.32526	1063.57642	-823.40753	-682.68549	946.47876	-787.37573	-608.37378	824.08044	-799.51172	-653.87585	829.35608	-761.96204	-621.85211	748.35724	-761.10535	-578.92834	920.08258	-1179.43188	-571.96698	933.5	-962.46918	-763.00818	935.34583	-1119.66016	-757.94751	941.69958	-974.66901	-635.2937	587.63324	-1217.03027	-660.64618	454.1058	-1198.62109	-738.60803	279.3364	-1203.05261	-798.71765	70.12009	-1142.81812	-847.18561	44.25569	-1089.53015	-654.22589	30.24381	-1149.97729	-560.73914	608.26294	-883.11884	-502.97141	461.67465	-907.94409	-496.95337	290.18399	-893.30927	-436.94061	86.66518	-928.87659	-464.29382	34.25099	-983.17993	-292.8736	89.37264	-918.0423	-594.26221	1709.79907	-1040.25806	1973.12451	1024.06836	-3102.14282	2013.17749	1022.17181	-3138.41699	NaN	NaN	NaN
